<mxfile host="65bd71144e">
    <diagram name="Page-1" id="c9db0220-8083-56f3-ca83-edcdcd058819">
        <mxGraphModel dx="2031" dy="1254" grid="1" gridSize="10" guides="1" tooltips="1" connect="1" arrows="1" fold="1" page="1" pageScale="1.5" pageWidth="1169" pageHeight="827" background="#ffffff" math="0" shadow="0">
            <root>
                <mxCell id="0" style=";html=1;"/>
                <mxCell id="1" style=";html=1;" parent="0"/>
                <mxCell id="3d76a8aef4d5c911-1" value="" style="html=1;shadow=0;dashed=0;shape=mxgraph.bootstrap.rect;fillColor=#222222;strokeColor=none;whiteSpace=wrap;rounded=0;fontSize=12;fontColor=#000000;align=center;" parent="1" vertex="1">
                    <mxGeometry x="80" y="70" width="1600" height="90" as="geometry"/>
                </mxCell>
                <mxCell id="3d76a8aef4d5c911-7" value="Zoeken" style="html=1;shadow=0;dashed=0;fillColor=none;strokeColor=none;shape=mxgraph.bootstrap.rect;fontColor=#999999;whiteSpace=wrap;fontSize=24;" parent="3d76a8aef4d5c911-1" vertex="1">
                    <mxGeometry x="480.0139130434782" width="160" height="90" as="geometry"/>
                </mxCell>
                <mxCell id="3d76a8aef4d5c911-8" value="Logout" style="html=1;shadow=0;dashed=0;fillColor=none;strokeColor=none;shape=mxgraph.bootstrap.rect;fontColor=#999999;whiteSpace=wrap;fontSize=24;" parent="3d76a8aef4d5c911-1" vertex="1">
                    <mxGeometry x="1460" width="140" height="90" as="geometry"/>
                </mxCell>
                <mxCell id="H9CyvaDkC_5dpCcxhKHN-1" value="Contact" style="html=1;shadow=0;dashed=0;fillColor=none;strokeColor=none;shape=mxgraph.bootstrap.rect;fontColor=#999999;whiteSpace=wrap;fontSize=24;" parent="3d76a8aef4d5c911-1" vertex="1">
                    <mxGeometry x="340.0069565217391" width="140" height="90" as="geometry"/>
                </mxCell>
                <mxCell id="H9CyvaDkC_5dpCcxhKHN-4" value="About" style="html=1;shadow=0;dashed=0;fillColor=none;strokeColor=none;shape=mxgraph.bootstrap.rect;fontColor=#999999;whiteSpace=wrap;fontSize=24;" parent="3d76a8aef4d5c911-1" vertex="1">
                    <mxGeometry x="179.99304347826086" width="140" height="90" as="geometry"/>
                </mxCell>
                <mxCell id="11" value="Home" style="html=1;shadow=0;dashed=0;fillColor=none;strokeColor=none;shape=mxgraph.bootstrap.rect;fontColor=#999999;whiteSpace=wrap;fontSize=24;" parent="3d76a8aef4d5c911-1" vertex="1">
                    <mxGeometry x="20.00304347826085" width="140" height="90" as="geometry"/>
                </mxCell>
                <mxCell id="3d76a8aef4d5c911-17" value="WF10.1" style="html=1;shadow=0;dashed=0;shape=mxgraph.bootstrap.rect;strokeColor=none;fillColor=none;fontColor=#000000;align=left;spacingLeft=5;whiteSpace=wrap;rounded=0;fontStyle=1;fontSize=30;" parent="1" vertex="1">
                    <mxGeometry y="10" width="200" height="20" as="geometry"/>
                </mxCell>
                <mxCell id="H9CyvaDkC_5dpCcxhKHN-5" value="" style="html=1;shadow=0;dashed=0;shape=mxgraph.bootstrap.rect;fillColor=#222222;strokeColor=none;whiteSpace=wrap;rounded=0;fontSize=12;fontColor=#000000;align=center;" parent="1" vertex="1">
                    <mxGeometry x="80" y="1110" width="1600" height="90" as="geometry"/>
                </mxCell>
                <mxCell id="H9CyvaDkC_5dpCcxhKHN-9" value="Footer tekst" style="html=1;shadow=0;dashed=0;fillColor=none;strokeColor=none;shape=mxgraph.bootstrap.rect;fontColor=#999999;whiteSpace=wrap;fontSize=24;" parent="H9CyvaDkC_5dpCcxhKHN-5" vertex="1">
                    <mxGeometry x="50" width="340" height="90" as="geometry"/>
                </mxCell>
                <mxCell id="10" value="" style="edgeStyle=none;html=1;" parent="1" target="3d76a8aef4d5c911-1" edge="1">
                    <mxGeometry relative="1" as="geometry">
                        <mxPoint x="455.757575757576" y="240" as="sourcePoint"/>
                    </mxGeometry>
                </mxCell>
                <mxCell id="84" value="" style="html=1;shadow=0;dashed=0;shape=mxgraph.bootstrap.rect;fillColor=#222222;strokeColor=none;whiteSpace=wrap;rounded=0;fontSize=12;fontColor=#000000;align=center;" vertex="1" parent="1">
                    <mxGeometry x="80" y="400" width="1600" height="40" as="geometry"/>
                </mxCell>
                <mxCell id="85" value="Naam Artikel" style="html=1;shadow=0;dashed=0;shape=mxgraph.bootstrap.rect;whiteSpace=wrap;fontSize=24;" vertex="1" parent="84">
                    <mxGeometry width="280" height="40" as="geometry"/>
                </mxCell>
                <mxCell id="86" value="Naam Auteur" style="html=1;shadow=0;dashed=0;shape=mxgraph.bootstrap.rect;whiteSpace=wrap;fontSize=24;" vertex="1" parent="84">
                    <mxGeometry x="323" width="237" height="40" as="geometry"/>
                </mxCell>
                <mxCell id="87" value="Tags Artikel" style="html=1;shadow=0;dashed=0;shape=mxgraph.bootstrap.rect;whiteSpace=wrap;fontSize=24;" vertex="1" parent="84">
                    <mxGeometry x="603" width="197" height="40" as="geometry"/>
                </mxCell>
                <mxCell id="88" value="Datum laatste wijziging" style="html=1;shadow=0;dashed=0;shape=mxgraph.bootstrap.rect;whiteSpace=wrap;fontSize=24;" vertex="1" parent="84">
                    <mxGeometry x="843" width="320" height="40" as="geometry"/>
                </mxCell>
                <mxCell id="89" value="Waardering x/5" style="html=1;shadow=0;dashed=0;shape=mxgraph.bootstrap.rect;whiteSpace=wrap;fontSize=24;" vertex="1" parent="84">
                    <mxGeometry x="1280" width="320" height="40" as="geometry"/>
                </mxCell>
                <mxCell id="90" value="Als aanwezig:" style="html=1;shadow=0;dashed=0;shape=mxgraph.bootstrap.rect;fillColor=#000000;strokeColor=none;fontColor=#ffffff;spacingRight=30;whiteSpace=wrap;fontSize=26;" vertex="1" parent="1">
                    <mxGeometry x="80" y="320" width="280" height="40" as="geometry"/>
                </mxCell>
                <mxCell id="91" value="" style="html=1;shadow=0;dashed=0;shape=mxgraph.bootstrap.rect;fillColor=#222222;strokeColor=none;whiteSpace=wrap;rounded=0;fontSize=12;fontColor=#000000;align=center;" vertex="1" parent="1">
                    <mxGeometry x="80" y="440" width="1600" height="40" as="geometry"/>
                </mxCell>
                <mxCell id="92" value="Naam Artikel" style="html=1;shadow=0;dashed=0;shape=mxgraph.bootstrap.rect;whiteSpace=wrap;fontSize=24;" vertex="1" parent="91">
                    <mxGeometry width="280" height="40" as="geometry"/>
                </mxCell>
                <mxCell id="93" value="Naam Auteur" style="html=1;shadow=0;dashed=0;shape=mxgraph.bootstrap.rect;whiteSpace=wrap;fontSize=24;" vertex="1" parent="91">
                    <mxGeometry x="323" width="237" height="40" as="geometry"/>
                </mxCell>
                <mxCell id="94" value="Tags Artikel" style="html=1;shadow=0;dashed=0;shape=mxgraph.bootstrap.rect;whiteSpace=wrap;fontSize=24;" vertex="1" parent="91">
                    <mxGeometry x="603" width="197" height="40" as="geometry"/>
                </mxCell>
                <mxCell id="95" value="Datum laatste wijziging" style="html=1;shadow=0;dashed=0;shape=mxgraph.bootstrap.rect;whiteSpace=wrap;fontSize=24;" vertex="1" parent="91">
                    <mxGeometry x="843" width="320" height="40" as="geometry"/>
                </mxCell>
                <mxCell id="96" value="Waardering x/5" style="html=1;shadow=0;dashed=0;shape=mxgraph.bootstrap.rect;whiteSpace=wrap;fontSize=24;" vertex="1" parent="91">
                    <mxGeometry x="1280" width="320" height="40" as="geometry"/>
                </mxCell>
                <mxCell id="97" value="" style="html=1;shadow=0;dashed=0;shape=mxgraph.bootstrap.rect;fillColor=#222222;strokeColor=none;whiteSpace=wrap;rounded=0;fontSize=12;fontColor=#000000;align=center;" vertex="1" parent="1">
                    <mxGeometry x="80" y="480" width="1600" height="40" as="geometry"/>
                </mxCell>
                <mxCell id="98" value="Naam Artikel" style="html=1;shadow=0;dashed=0;shape=mxgraph.bootstrap.rect;whiteSpace=wrap;fontSize=24;" vertex="1" parent="97">
                    <mxGeometry width="280" height="40" as="geometry"/>
                </mxCell>
                <mxCell id="99" value="Naam Auteur" style="html=1;shadow=0;dashed=0;shape=mxgraph.bootstrap.rect;whiteSpace=wrap;fontSize=24;" vertex="1" parent="97">
                    <mxGeometry x="323" width="237" height="40" as="geometry"/>
                </mxCell>
                <mxCell id="100" value="Tags Artikel" style="html=1;shadow=0;dashed=0;shape=mxgraph.bootstrap.rect;whiteSpace=wrap;fontSize=24;" vertex="1" parent="97">
                    <mxGeometry x="603" width="197" height="40" as="geometry"/>
                </mxCell>
                <mxCell id="101" value="Datum laatste wijziging" style="html=1;shadow=0;dashed=0;shape=mxgraph.bootstrap.rect;whiteSpace=wrap;fontSize=24;" vertex="1" parent="97">
                    <mxGeometry x="843" width="320" height="40" as="geometry"/>
                </mxCell>
                <mxCell id="102" value="Waardering x/5" style="html=1;shadow=0;dashed=0;shape=mxgraph.bootstrap.rect;whiteSpace=wrap;fontSize=24;" vertex="1" parent="97">
                    <mxGeometry x="1280" width="320" height="40" as="geometry"/>
                </mxCell>
                <mxCell id="103" value="" style="html=1;shadow=0;dashed=0;shape=mxgraph.bootstrap.rect;fillColor=#222222;strokeColor=none;whiteSpace=wrap;rounded=0;fontSize=12;fontColor=#000000;align=center;" vertex="1" parent="1">
                    <mxGeometry x="80" y="520" width="1600" height="40" as="geometry"/>
                </mxCell>
                <mxCell id="104" value="Naam Artikel" style="html=1;shadow=0;dashed=0;shape=mxgraph.bootstrap.rect;whiteSpace=wrap;fontSize=24;" vertex="1" parent="103">
                    <mxGeometry width="280" height="40" as="geometry"/>
                </mxCell>
                <mxCell id="105" value="Naam Auteur" style="html=1;shadow=0;dashed=0;shape=mxgraph.bootstrap.rect;whiteSpace=wrap;fontSize=24;" vertex="1" parent="103">
                    <mxGeometry x="323" width="237" height="40" as="geometry"/>
                </mxCell>
                <mxCell id="106" value="Tags Artikel" style="html=1;shadow=0;dashed=0;shape=mxgraph.bootstrap.rect;whiteSpace=wrap;fontSize=24;" vertex="1" parent="103">
                    <mxGeometry x="603" width="197" height="40" as="geometry"/>
                </mxCell>
                <mxCell id="107" value="Datum laatste wijziging" style="html=1;shadow=0;dashed=0;shape=mxgraph.bootstrap.rect;whiteSpace=wrap;fontSize=24;" vertex="1" parent="103">
                    <mxGeometry x="843" width="320" height="40" as="geometry"/>
                </mxCell>
                <mxCell id="108" value="Waardering x/5" style="html=1;shadow=0;dashed=0;shape=mxgraph.bootstrap.rect;whiteSpace=wrap;fontSize=24;" vertex="1" parent="103">
                    <mxGeometry x="1280" width="320" height="40" as="geometry"/>
                </mxCell>
                <mxCell id="109" value="Als niet aanwezig:" style="html=1;shadow=0;dashed=0;shape=mxgraph.bootstrap.rect;fillColor=#000000;strokeColor=none;fontColor=#ffffff;spacingRight=30;whiteSpace=wrap;fontSize=26;" vertex="1" parent="1">
                    <mxGeometry x="80" y="600" width="280" height="40" as="geometry"/>
                </mxCell>
                <mxCell id="110" value="" style="html=1;shadow=0;dashed=0;shape=mxgraph.bootstrap.rect;fillColor=#222222;strokeColor=none;whiteSpace=wrap;rounded=0;fontSize=12;fontColor=#000000;align=center;" vertex="1" parent="1">
                    <mxGeometry x="80" y="640" width="1600" height="40" as="geometry"/>
                </mxCell>
                <mxCell id="111" value="Deze zoekopdracht op ... heeft geen resultaten" style="html=1;shadow=0;dashed=0;shape=mxgraph.bootstrap.rect;whiteSpace=wrap;fontSize=24;" vertex="1" parent="110">
                    <mxGeometry width="730" height="40" as="geometry"/>
                </mxCell>
                <mxCell id="112" value="Sorteer op naam" style="html=1;shadow=0;dashed=0;shape=mxgraph.bootstrap.rect;fillColor=#000000;strokeColor=none;fontColor=#ffffff;spacingRight=30;whiteSpace=wrap;fontSize=20;align=left;" vertex="1" parent="1">
                    <mxGeometry x="80" y="360" width="280" height="40" as="geometry"/>
                </mxCell>
                <mxCell id="113" value="Sorteer op auteur" style="html=1;shadow=0;dashed=0;shape=mxgraph.bootstrap.rect;fillColor=#000000;strokeColor=none;fontColor=#ffffff;spacingRight=30;whiteSpace=wrap;fontSize=20;align=left;" vertex="1" parent="1">
                    <mxGeometry x="400" y="360" width="240" height="40" as="geometry"/>
                </mxCell>
                <mxCell id="114" value="Sorteer op tag" style="html=1;shadow=0;dashed=0;shape=mxgraph.bootstrap.rect;fillColor=#000000;strokeColor=none;fontColor=#ffffff;spacingRight=30;whiteSpace=wrap;fontSize=20;align=left;" vertex="1" parent="1">
                    <mxGeometry x="680" y="360" width="200" height="40" as="geometry"/>
                </mxCell>
                <mxCell id="115" value="Sorteer op datum" style="html=1;shadow=0;dashed=0;shape=mxgraph.bootstrap.rect;fillColor=#000000;strokeColor=none;fontColor=#ffffff;spacingRight=30;whiteSpace=wrap;fontSize=20;align=left;" vertex="1" parent="1">
                    <mxGeometry x="920" y="360" width="320" height="40" as="geometry"/>
                </mxCell>
                <mxCell id="116" value="Sorteer op waardering" style="html=1;shadow=0;dashed=0;shape=mxgraph.bootstrap.rect;fillColor=#000000;strokeColor=none;fontColor=#ffffff;spacingRight=30;whiteSpace=wrap;fontSize=20;align=left;" vertex="1" parent="1">
                    <mxGeometry x="1360" y="360" width="320" height="40" as="geometry"/>
                </mxCell>
            </root>
        </mxGraphModel>
    </diagram>
</mxfile>